#!OML:ASF G:\ViconDB\ViconDB\414\test\team2\shane.ASF
:FULLY-SPECIFIED
:DEGREES
247
root 6.87804 16.8644 10.0669 -141.952 78.7194 -135.4
lowerback 8.05868 3.13262 6.37805
upperback 3.31987 4.78584 1.1395
thorax -0.639418 2.49514 -2.77368
lowerneck -13.1143 -4.47077 -5.26503
upperneck 22.4492 -5.81019 4.78552
head 9.54914 -2.48359 1.8533
rclavicle -3.98066e-014 -1.35174e-014
rhumerus -12.9195 7.32075 -90.8378
rradius 34.1058
rwrist 34.1966
rhand -31.5548 -14.6567
rfingers 7.12502
rthumb -4.81891 -44.5819
lclavicle -3.98066e-014 -1.35174e-014
lhumerus -43.719 -6.26084 79.9722
lradius 15.9452
lwrist -23.0442
lhand -38.5743 6.69331
lfingers 7.12502
lthumb -11.5932 36.3526
rfemur 25.9913 -21.38 15.4568
rtibia 0
rfoot -10.6798 -2.74681
rtoes -17.0171
lfemur -21.3619 20.8318 -11.5574
ltibia 30.7768
lfoot -22.6965 -16.0043
ltoes -14.1255
248
root 7.01947 16.8572 10.0461 -143.341 78.0905 -136.819
lowerback 8.06229 3.13509 6.49214
upperback 3.1711 4.80018 1.13181
thorax -0.784104 2.49342 -2.85234
lowerneck -13.3228 -4.42721 -5.24521
upperneck 22.7204 -5.75358 4.81894
head 9.68133 -2.44211 1.86739
rclavicle -1.07642e-013 -1.19271e-014
rhumerus -12.7468 8.33741 -90.9063
rradius 34.8403
rwrist 33.5032
rhand -31.7268 -14.2296
rfingers 7.12502
rthumb -4.98495 -44.151
lclavicle -1.07642e-013 -1.19271e-014
lhumerus -44.6345 -6.1781 79.5186
lradius 15.8579
lwrist -22.7634
lhand -38.4777 6.79584
lfingers 7.12502
lthumb -11.5 36.4604
rfemur 26.5608 -21.4799 15.5532
rtibia 2.8625e-014
rfoot -10.7231 -3.17789
rtoes -17.1039
lfemur -22.2057 22.7007 -12.297
ltibia 30.4961
lfoot -22.5413 -16.2034
ltoes -13.5431
249
root 7.1602 16.8527 10.0192 -143.672 77.4897 -137.265
lowerback 7.90439 3.22286 6.74327
upperback 2.96893 4.92559 1.14152
thorax -0.873611 2.5471 -2.98659
lowerneck -13.3187 -4.41782 -4.87507
upperneck 22.8063 -5.75001 4.51521
head 9.68886 -2.43875 1.70123
rclavicle -2.85753e-014 3.57812e-015
rhumerus -12.703 9.49977 -90.962
rradius 35.8311
rwrist 32.2223
rhand -31.9065 -15.1355
rfingers 7.12502
rthumb -5.15844 -45.0527
lclavicle -2.85753e-014 3.57812e-015
lhumerus -45.3237 -5.48905 78.564
lradius 15.4986
lwrist -23.4793
lhand -38.1004 6.79817
lfingers 7.12502
lthumb -11.1361 36.4827
rfemur 26.9947 -21.4522 15.8209
rtibia 2.22639e-014
rfoot -10.6623 -3.47114
rtoes -17.9854
lfemur -23.0016 24.1874 -12.8568
ltibia 30.3689
lfoot -22.6017 -15.7637
ltoes -12.8624
250
root 7.30463 16.8424 9.98495 -143.959 76.9647 -137.548
lowerback 7.75526 3.26463 7.01139
upperback 2.91782 4.99047 1.16185
thorax -0.815733 2.58148 -3.10851
lowerneck -13.2417 -4.39992 -4.82655
upperneck 22.6553 -5.74173 4.53837
head 9.61956 -2.43161 1.70288
rclavicle 1.67973e-014 2.38542e-015
rhumerus -12.5089 10.1489 -91.0548
rradius 36.5204
rwrist 32.1777
rhand -31.7556 -14.9905
rfingers 7.12502
rthumb -5.01274 -44.9112
lclavicle 1.67973e-014 2.38542e-015
lhumerus -45.7488 -4.62628 77.6575
lradius 15.0117
lwrist -23.9707
lhand -38.08 6.90377
lfingers 7.12502
lthumb -11.1164 36.5893
rfemur 27.5644 -21.3137 15.9665
rtibia -1.59028e-014
rfoot -10.5319 -3.73753
rtoes -18.5898
lfemur -23.5281 25.4979 -13.3087
ltibia 30.3874
lfoot -22.7064 -15.1925
ltoes -12.09
251
root 7.45129 16.8307 9.94424 -144.889 76.5632 -138.589
lowerback 7.69246 3.31744 7.13125
upperback 2.69158 5.06268 1.02447
thorax -0.98493 2.60323 -3.32624
lowerneck -13.1565 -4.35338 -4.74023
upperneck 22.7461 -5.72257 4.6594
head 9.63533 -2.39767 1.73567
rclavicle -3.23522e-014 1.43125e-014
rhumerus -12.5765 10.5723 -91.2331
rradius 37.1719
rwrist 32.2772
rhand -31.6971 -14.5101
rfingers 7.12502
rthumb -4.95623 -44.4321
lclavicle -3.23522e-014 1.43125e-014
lhumerus -46.415 -3.86623 76.5202
lradius 14.4174
lwrist -25.0842
lhand -38.2511 6.95125
lfingers 7.12502
lthumb -11.2814 36.6279
rfemur 28.0347 -21.1705 15.8945
rtibia 4.13472e-014
rfoot -10.3975 -3.94077
rtoes -19.4195
lfemur -23.867 26.2596 -13.8755
ltibia 30.4646
lfoot -22.7995 -14.2728
ltoes -11.4675
